<svg width="24" height="24" viewBox="0 0 24 24" fill="none" xmlns="http://www.w3.org/2000/svg">
<path fill-rule="evenodd" clip-rule="evenodd" d="M3.51017 9.78852L2.43587 13.3779C2.33788 13.7053 2.4452 14.064 2.70175 14.2663L12 21.6L3.51017 9.78852Z" fill="#FCA326"/>
<path fill-rule="evenodd" clip-rule="evenodd" d="M20.4898 9.78852L21.5641 13.3779C21.6621 13.7053 21.5548 14.064 21.2983 14.2663L12 21.6L20.4898 9.78852Z" fill="#FCA326"/>
<path fill-rule="evenodd" clip-rule="evenodd" d="M12 21.6L8.46474 9.78844H3.51016L12 21.6Z" fill="#FC6D26"/>
<path fill-rule="evenodd" clip-rule="evenodd" d="M12 21.6L15.5353 9.78844H20.4898L12 21.6Z" fill="#FC6D26"/>
<path fill-rule="evenodd" clip-rule="evenodd" d="M20.4897 9.7885H15.5352L17.6645 2.67454C17.774 2.30844 18.251 2.30854 18.3605 2.67454L20.4897 9.7885Z" fill="#E24329"/>
<path fill-rule="evenodd" clip-rule="evenodd" d="M3.51028 9.7885H8.46486L6.33556 2.67454C6.22604 2.30844 5.74901 2.30854 5.63949 2.67454L3.51028 9.7885Z" fill="#E24329"/>
<path fill-rule="evenodd" clip-rule="evenodd" d="M11.9999 21.6L15.5352 9.78852H8.46469L11.9999 21.6Z" fill="#E24329"/>
</svg>
