<svg width="24" height="24" viewBox="0 0 24 24" fill="none" xmlns="http://www.w3.org/2000/svg">
<path fill-rule="evenodd" clip-rule="evenodd" d="M9.53033 5.46967C9.82322 5.76256 9.82322 6.23744 9.53033 6.53033L6.06066 10L9.53033 13.4697C9.82322 13.7626 9.82322 14.2374 9.53033 14.5303C9.23744 14.8232 8.76256 14.8232 8.46967 14.5303L4.46967 10.5303C4.17678 10.2374 4.17678 9.76256 4.46967 9.46967L8.46967 5.46967C8.76256 5.17678 9.23744 5.17678 9.53033 5.46967Z" fill="#3D3D3D"/>
<path fill-rule="evenodd" clip-rule="evenodd" d="M4.25 10C4.25 9.58579 4.58579 9.25 5 9.25H16C17.2598 9.25 18.468 9.75044 19.3588 10.6412C20.2496 11.532 20.75 12.7402 20.75 14C20.75 15.2598 20.2496 16.468 19.3588 17.3588C18.468 18.2496 17.2598 18.75 16 18.75H15C14.5858 18.75 14.25 18.4142 14.25 18C14.25 17.5858 14.5858 17.25 15 17.25H16C16.862 17.25 17.6886 16.9076 18.2981 16.2981C18.9076 15.6886 19.25 14.862 19.25 14C19.25 13.138 18.9076 12.3114 18.2981 11.7019C17.6886 11.0924 16.862 10.75 16 10.75H5C4.58579 10.75 4.25 10.4142 4.25 10Z" fill="#3D3D3D"/>
</svg>
