<svg width="24" height="24" viewBox="0 0 24 24" fill="none" xmlns="http://www.w3.org/2000/svg">
<path fill-rule="evenodd" clip-rule="evenodd" d="M14.4697 5.46967C14.7626 5.17678 15.2374 5.17678 15.5303 5.46967L19.5303 9.46967C19.8232 9.76256 19.8232 10.2374 19.5303 10.5303L15.5303 14.5303C15.2374 14.8232 14.7626 14.8232 14.4697 14.5303C14.1768 14.2374 14.1768 13.7626 14.4697 13.4697L17.9393 10L14.4697 6.53033C14.1768 6.23744 14.1768 5.76256 14.4697 5.46967Z" fill="#3D3D3D"/>
<path fill-rule="evenodd" clip-rule="evenodd" d="M4.64124 10.6412C5.53204 9.75044 6.74022 9.25 8 9.25H19C19.4142 9.25 19.75 9.58579 19.75 10C19.75 10.4142 19.4142 10.75 19 10.75H8C7.13805 10.75 6.3114 11.0924 5.7019 11.7019C5.09241 12.3114 4.75 13.138 4.75 14C4.75 14.862 5.09241 15.6886 5.7019 16.2981C6.3114 16.9076 7.13805 17.25 8 17.25H9C9.41421 17.25 9.75 17.5858 9.75 18C9.75 18.4142 9.41421 18.75 9 18.75H8C6.74022 18.75 5.53204 18.2496 4.64124 17.3588C3.75044 16.468 3.25 15.2598 3.25 14C3.25 12.7402 3.75044 11.532 4.64124 10.6412Z" fill="#3D3D3D"/>
</svg>
