<svg width="24" height="24" viewBox="0 0 24 24" fill="none" xmlns="http://www.w3.org/2000/svg">
<path fill-rule="evenodd" clip-rule="evenodd" d="M5.75 7C5.75 6.58579 6.08579 6.25 6.5 6.25H17.5C17.9142 6.25 18.25 6.58579 18.25 7C18.25 7.41421 17.9142 7.75 17.5 7.75H6.5C6.08579 7.75 5.75 7.41421 5.75 7Z" fill="#8F4F00"/>
<path fill-rule="evenodd" clip-rule="evenodd" d="M5.75 17C5.75 16.5858 6.08579 16.25 6.5 16.25H17.5C17.9142 16.25 18.25 16.5858 18.25 17C18.25 17.4142 17.9142 17.75 17.5 17.75H6.5C6.08579 17.75 5.75 17.4142 5.75 17Z" fill="#8F4F00"/>
<path fill-rule="evenodd" clip-rule="evenodd" d="M12 12.75C10.6076 12.75 9.27226 13.3031 8.28769 14.2877C7.30312 15.2723 6.75 16.6076 6.75 18V20C6.75 20.0663 6.77634 20.1299 6.82322 20.1768C6.87011 20.2237 6.93369 20.25 7 20.25H17C17.0663 20.25 17.1299 20.2237 17.1768 20.1768C17.2237 20.1299 17.25 20.0663 17.25 20V18C17.25 16.6076 16.6969 15.2723 15.7123 14.2877C14.7277 13.3031 13.3924 12.75 12 12.75ZM7.22703 13.227C8.4929 11.9612 10.2098 11.25 12 11.25C13.7902 11.25 15.5071 11.9612 16.773 13.227C18.0388 14.4929 18.75 16.2098 18.75 18V20C18.75 20.4641 18.5656 20.9092 18.2374 21.2374C17.9092 21.5656 17.4641 21.75 17 21.75H7C6.53587 21.75 6.09075 21.5656 5.76256 21.2374C5.43437 20.9092 5.25 20.4641 5.25 20V18C5.25 16.2098 5.96116 14.4929 7.22703 13.227Z" fill="#8F4F00"/>
<path fill-rule="evenodd" clip-rule="evenodd" d="M5.76256 2.76256C6.09075 2.43437 6.53587 2.25 7 2.25H17C17.4641 2.25 17.9092 2.43437 18.2374 2.76256C18.5656 3.09075 18.75 3.53587 18.75 4V6C18.75 7.79021 18.0388 9.5071 16.773 10.773C15.5071 12.0388 13.7902 12.75 12 12.75C10.2098 12.75 8.4929 12.0388 7.22703 10.773C5.96116 9.5071 5.25 7.79021 5.25 6V4C5.25 3.53587 5.43437 3.09075 5.76256 2.76256ZM7 3.75C6.9337 3.75 6.87011 3.77634 6.82322 3.82322C6.77634 3.87011 6.75 3.9337 6.75 4V6C6.75 7.39239 7.30312 8.72774 8.28769 9.71231C9.27226 10.6969 10.6076 11.25 12 11.25C13.3924 11.25 14.7277 10.6969 15.7123 9.71231C16.6969 8.72774 17.25 7.39239 17.25 6V4C17.25 3.93369 17.2237 3.87011 17.1768 3.82322C17.1299 3.77634 17.0663 3.75 17 3.75H7Z" fill="#8F4F00"/>
</svg>
