<svg width="24" height="24" viewBox="0 0 24 24" fill="none" xmlns="http://www.w3.org/2000/svg">
<path fill-rule="evenodd" clip-rule="evenodd" d="M3.25 7C3.25 6.58579 3.58579 6.25 4 6.25H20C20.4142 6.25 20.75 6.58579 20.75 7C20.75 7.41421 20.4142 7.75 20 7.75H4C3.58579 7.75 3.25 7.41421 3.25 7Z" fill="#3D3D3D"/>
<path fill-rule="evenodd" clip-rule="evenodd" d="M10 10.25C10.4142 10.25 10.75 10.5858 10.75 11V17C10.75 17.4142 10.4142 17.75 10 17.75C9.58579 17.75 9.25 17.4142 9.25 17V11C9.25 10.5858 9.58579 10.25 10 10.25Z" fill="#3D3D3D"/>
<path fill-rule="evenodd" clip-rule="evenodd" d="M14 10.25C14.4142 10.25 14.75 10.5858 14.75 11V17C14.75 17.4142 14.4142 17.75 14 17.75C13.5858 17.75 13.25 17.4142 13.25 17V11C13.25 10.5858 13.5858 10.25 14 10.25Z" fill="#3D3D3D"/>
<path fill-rule="evenodd" clip-rule="evenodd" d="M4.9377 6.25259C5.35048 6.21819 5.71299 6.52493 5.74739 6.93771L6.74739 18.9377C6.74912 18.9584 6.74998 18.9792 6.74998 19C6.74998 19.3315 6.88168 19.6495 7.1161 19.8839C7.35052 20.1183 7.66846 20.25 7.99998 20.25H16C16.3315 20.25 16.6494 20.1183 16.8839 19.8839C17.1183 19.6495 17.25 19.3315 17.25 19C17.25 18.9792 17.2508 18.9584 17.2526 18.9377L18.2526 6.93771C18.287 6.52493 18.6495 6.21819 19.0623 6.25259C19.475 6.28699 19.7818 6.6495 19.7474 7.06228L18.7498 19.0337C18.741 19.7508 18.4523 20.4368 17.9445 20.9445C17.4288 21.4603 16.7293 21.75 16 21.75H7.99998C7.27063 21.75 6.57116 21.4603 6.05544 20.9445C5.54765 20.4368 5.25896 19.7508 5.25019 19.0337L4.25257 7.06228C4.21817 6.6495 4.52491 6.28699 4.9377 6.25259Z" fill="#3D3D3D"/>
<path fill-rule="evenodd" clip-rule="evenodd" d="M10 3.75C9.9337 3.75 9.87011 3.77634 9.82322 3.82322C9.77634 3.87011 9.75 3.9337 9.75 4V7C9.75 7.41421 9.41421 7.75 9 7.75C8.58579 7.75 8.25 7.41421 8.25 7V4C8.25 3.53587 8.43437 3.09075 8.76256 2.76256C9.09075 2.43437 9.53587 2.25 10 2.25H14C14.4641 2.25 14.9092 2.43437 15.2374 2.76256C15.5656 3.09075 15.75 3.53587 15.75 4V7C15.75 7.41421 15.4142 7.75 15 7.75C14.5858 7.75 14.25 7.41421 14.25 7V4C14.25 3.9337 14.2237 3.87011 14.1768 3.82322C14.1299 3.77634 14.0663 3.75 14 3.75H10Z" fill="#3D3D3D"/>
</svg>
