<svg width="24" height="24" viewBox="0 0 24 24" fill="none" xmlns="http://www.w3.org/2000/svg">
<path fill-rule="evenodd" clip-rule="evenodd" d="M12.0555 4.05546C12.5712 3.53973 13.2707 3.25 14 3.25C14.7293 3.25 15.4288 3.53973 15.9445 4.05546C16.4603 4.57118 16.75 5.27065 16.75 6C16.75 6.72935 16.4603 7.42882 15.9445 7.94454C15.4288 8.46027 14.7293 8.75 14 8.75C13.2707 8.75 12.5712 8.46027 12.0555 7.94454C11.5397 7.42882 11.25 6.72935 11.25 6C11.25 5.27065 11.5397 4.57118 12.0555 4.05546ZM14 4.75C13.6685 4.75 13.3505 4.8817 13.1161 5.11612C12.8817 5.35054 12.75 5.66848 12.75 6C12.75 6.33152 12.8817 6.64946 13.1161 6.88388C13.3505 7.1183 13.6685 7.25 14 7.25C14.3315 7.25 14.6495 7.1183 14.8839 6.88388C15.1183 6.64946 15.25 6.33152 15.25 6C15.25 5.66848 15.1183 5.35054 14.8839 5.11612C14.6495 4.8817 14.3315 4.75 14 4.75Z" fill="#3D3D3D"/>
<path fill-rule="evenodd" clip-rule="evenodd" d="M3.25 6C3.25 5.58579 3.58579 5.25 4 5.25H12C12.4142 5.25 12.75 5.58579 12.75 6C12.75 6.41421 12.4142 6.75 12 6.75H4C3.58579 6.75 3.25 6.41421 3.25 6Z" fill="#3D3D3D"/>
<path fill-rule="evenodd" clip-rule="evenodd" d="M15.25 6C15.25 5.58579 15.5858 5.25 16 5.25H20C20.4142 5.25 20.75 5.58579 20.75 6C20.75 6.41421 20.4142 6.75 20 6.75H16C15.5858 6.75 15.25 6.41421 15.25 6Z" fill="#3D3D3D"/>
<path fill-rule="evenodd" clip-rule="evenodd" d="M6.05546 10.0555C6.57118 9.53973 7.27065 9.25 8 9.25C8.72935 9.25 9.42882 9.53973 9.94454 10.0555C10.4603 10.5712 10.75 11.2707 10.75 12C10.75 12.7293 10.4603 13.4288 9.94454 13.9445C9.42882 14.4603 8.72935 14.75 8 14.75C7.27065 14.75 6.57118 14.4603 6.05546 13.9445C5.53973 13.4288 5.25 12.7293 5.25 12C5.25 11.2707 5.53973 10.5712 6.05546 10.0555ZM8 10.75C7.66848 10.75 7.35054 10.8817 7.11612 11.1161C6.8817 11.3505 6.75 11.6685 6.75 12C6.75 12.3315 6.8817 12.6495 7.11612 12.8839C7.35054 13.1183 7.66848 13.25 8 13.25C8.33152 13.25 8.64946 13.1183 8.88388 12.8839C9.1183 12.6495 9.25 12.3315 9.25 12C9.25 11.6685 9.1183 11.3505 8.88388 11.1161C8.64946 10.8817 8.33152 10.75 8 10.75Z" fill="#3D3D3D"/>
<path fill-rule="evenodd" clip-rule="evenodd" d="M3.25 12C3.25 11.5858 3.58579 11.25 4 11.25H6C6.41421 11.25 6.75 11.5858 6.75 12C6.75 12.4142 6.41421 12.75 6 12.75H4C3.58579 12.75 3.25 12.4142 3.25 12Z" fill="#3D3D3D"/>
<path fill-rule="evenodd" clip-rule="evenodd" d="M9.25 12C9.25 11.5858 9.58579 11.25 10 11.25H20C20.4142 11.25 20.75 11.5858 20.75 12C20.75 12.4142 20.4142 12.75 20 12.75H10C9.58579 12.75 9.25 12.4142 9.25 12Z" fill="#3D3D3D"/>
<path fill-rule="evenodd" clip-rule="evenodd" d="M15.0555 16.0555C15.5712 15.5397 16.2707 15.25 17 15.25C17.7293 15.25 18.4288 15.5397 18.9445 16.0555C19.4603 16.5712 19.75 17.2707 19.75 18C19.75 18.7293 19.4603 19.4288 18.9445 19.9445C18.4288 20.4603 17.7293 20.75 17 20.75C16.2707 20.75 15.5712 20.4603 15.0555 19.9445C14.5397 19.4288 14.25 18.7293 14.25 18C14.25 17.2707 14.5397 16.5712 15.0555 16.0555ZM17 16.75C16.6685 16.75 16.3505 16.8817 16.1161 17.1161C15.8817 17.3505 15.75 17.6685 15.75 18C15.75 18.3315 15.8817 18.6495 16.1161 18.8839C16.3505 19.1183 16.6685 19.25 17 19.25C17.3315 19.25 17.6495 19.1183 17.8839 18.8839C18.1183 18.6495 18.25 18.3315 18.25 18C18.25 17.6685 18.1183 17.3505 17.8839 17.1161C17.6495 16.8817 17.3315 16.75 17 16.75Z" fill="#3D3D3D"/>
<path fill-rule="evenodd" clip-rule="evenodd" d="M3.25 18C3.25 17.5858 3.58579 17.25 4 17.25H15C15.4142 17.25 15.75 17.5858 15.75 18C15.75 18.4142 15.4142 18.75 15 18.75H4C3.58579 18.75 3.25 18.4142 3.25 18Z" fill="#3D3D3D"/>
<path fill-rule="evenodd" clip-rule="evenodd" d="M18.25 18C18.25 17.5858 18.5858 17.25 19 17.25H20C20.4142 17.25 20.75 17.5858 20.75 18C20.75 18.4142 20.4142 18.75 20 18.75H19C18.5858 18.75 18.25 18.4142 18.25 18Z" fill="#3D3D3D"/>
</svg>
