<svg width="24" height="24" viewBox="0 0 24 24" fill="none" xmlns="http://www.w3.org/2000/svg">
<path fill-rule="evenodd" clip-rule="evenodd" d="M5.64124 3.64124C6.53204 2.75044 7.74022 2.25 9 2.25C10.2598 2.25 11.468 2.75044 12.3588 3.64124C13.2496 4.53204 13.75 5.74022 13.75 7C13.75 8.25978 13.2496 9.46796 12.3588 10.3588C11.468 11.2496 10.2598 11.75 9 11.75C7.74022 11.75 6.53204 11.2496 5.64124 10.3588C4.75044 9.46796 4.25 8.25978 4.25 7C4.25 5.74022 4.75044 4.53204 5.64124 3.64124ZM9 3.75C8.13805 3.75 7.3114 4.09241 6.7019 4.7019C6.09241 5.3114 5.75 6.13805 5.75 7C5.75 7.86195 6.09241 8.6886 6.7019 9.2981C7.3114 9.90759 8.13805 10.25 9 10.25C9.86195 10.25 10.6886 9.90759 11.2981 9.2981C11.9076 8.6886 12.25 7.86195 12.25 7C12.25 6.13805 11.9076 5.3114 11.2981 4.7019C10.6886 4.09241 9.86195 3.75 9 3.75Z" fill="#3D3D3D"/>
<path fill-rule="evenodd" clip-rule="evenodd" d="M7 15.75C6.13805 15.75 5.3114 16.0924 4.7019 16.7019C4.09241 17.3114 3.75 18.138 3.75 19V21C3.75 21.4142 3.41421 21.75 3 21.75C2.58579 21.75 2.25 21.4142 2.25 21V19C2.25 17.7402 2.75044 16.532 3.64124 15.6412C4.53204 14.7504 5.74022 14.25 7 14.25H11C12.2598 14.25 13.468 14.7504 14.3588 15.6412C15.2496 16.532 15.75 17.7402 15.75 19V21C15.75 21.4142 15.4142 21.75 15 21.75C14.5858 21.75 14.25 21.4142 14.25 21V19C14.25 18.138 13.9076 17.3114 13.2981 16.7019C12.6886 16.0924 11.862 15.75 11 15.75H7Z" fill="#3D3D3D"/>
<path fill-rule="evenodd" clip-rule="evenodd" d="M15.2735 2.94397C15.3762 2.5427 15.7848 2.3007 16.1861 2.40344C17.2078 2.66505 18.1134 3.25927 18.7602 4.09243C19.4069 4.92559 19.7579 5.9503 19.7579 7.005C19.7579 8.05971 19.4069 9.08441 18.7602 9.91757C18.1134 10.7507 17.2078 11.345 16.1861 11.6066C15.7848 11.7093 15.3762 11.4673 15.2735 11.066C15.1708 10.6648 15.4128 10.2562 15.814 10.1534C16.5131 9.97445 17.1327 9.56787 17.5752 8.99781C18.0177 8.42775 18.2579 7.72664 18.2579 7.005C18.2579 6.28336 18.0177 5.58225 17.5752 5.01219C17.1327 4.44213 16.5131 4.03556 15.814 3.85656C15.4128 3.75382 15.1708 3.34524 15.2735 2.94397Z" fill="#3D3D3D"/>
<path fill-rule="evenodd" clip-rule="evenodd" d="M17.2739 14.9625C17.3774 14.5614 17.7865 14.3203 18.1875 14.4238C19.2027 14.6859 20.1025 15.2764 20.7469 16.1034C21.3913 16.9304 21.744 17.9473 21.75 18.9957L21.7501 19H21.7501V21C21.7501 21.4142 21.4143 21.75 21.0001 21.75C20.5858 21.75 20.2501 21.4142 20.2501 21V19.0022C20.2455 18.2857 20.0042 17.5907 19.5637 17.0254C19.1228 16.4596 18.5071 16.0555 17.8126 15.8762C17.4115 15.7726 17.1703 15.3636 17.2739 14.9625Z" fill="#3D3D3D"/>
</svg>
