<svg width="331" height="15" viewBox="0 0 331 15" fill="none" xmlns="http://www.w3.org/2000/svg">
<path d="M5.33333 12.6973C8.27885 12.6973 10.6667 10.3095 10.6667 7.36401C10.6667 4.41849 8.27885 2.03068 5.33333 2.03068C2.38781 2.03068 -5.24521e-06 4.41849 -5.24521e-06 7.36401C-5.24521e-06 10.3095 2.38781 12.6973 5.33333 12.6973ZM330.04 8.07112C330.431 7.6806 330.431 7.04743 330.04 6.65691L323.676 0.292946C323.286 -0.0975785 322.653 -0.0975785 322.262 0.292946C321.872 0.68347 321.872 1.31664 322.262 1.70716L327.919 7.36401L322.262 13.0209C321.872 13.4114 321.872 14.0446 322.262 14.4351C322.653 14.8256 323.286 14.8256 323.676 14.4351L330.04 8.07112ZM5.33333 7.36401V8.36401L329.333 8.36401V7.36401V6.36401L5.33333 6.36401V7.36401Z" fill="#B9FD50"/>
</svg>
