<svg width="24" height="24" viewBox="0 0 24 24" fill="none" xmlns="http://www.w3.org/2000/svg">
<path d="M11 24C17.0751 24 22 19.0751 22 13C22 6.92487 17.0751 2 11 2C4.92487 2 0 6.92487 0 13C0 19.0751 4.92487 24 11 24Z" fill="#B9FD50"/>
<path d="M9.03202 19.0003V10.3123C9.03202 9.72565 9.16002 9.20831 9.41602 8.76031C9.68268 8.31231 10.0454 7.96031 10.504 7.70431C10.9734 7.44831 11.512 7.32031 12.12 7.32031C12.5894 7.32031 12.9894 7.40031 13.32 7.56031C13.6507 7.72031 13.96 7.94965 14.248 8.24831L13.112 9.38431C12.984 9.25631 12.8454 9.15498 12.696 9.08031C12.5467 9.00565 12.3547 8.96831 12.12 8.96831C11.6934 8.96831 11.3627 9.08565 11.128 9.32031C10.904 9.54431 10.792 9.86965 10.792 10.2963V19.0003H9.03202ZM7.19202 12.9203V11.3203H13.112V12.9203H7.19202Z" fill="#111204"/>
</svg>
