<svg width="14" height="14" viewBox="0 0 14 14" fill="none" xmlns="http://www.w3.org/2000/svg">
<path d="M5.52757 10.6477C5.14309 9.34759 4.12625 8.33075 2.82617 7.94627L0.358192 7.2164C-0.119412 7.07515 -0.119412 6.3987 0.358192 6.25745L2.82617 5.52758C4.12625 5.1431 5.14309 4.12626 5.52757 2.82619L6.25744 0.35821C6.39868 -0.119393 7.07514 -0.119394 7.21638 0.35821L7.94625 2.82619C8.33073 4.12626 9.34757 5.1431 10.6476 5.52758L13.1156 6.25745C13.5932 6.3987 13.5932 7.07515 13.1156 7.2164L10.6476 7.94627C9.34757 8.33075 8.33073 9.34759 7.94625 10.6477L7.21638 13.1156C7.07514 13.5932 6.39868 13.5932 6.25744 13.1156L5.52757 10.6477Z" fill="#B9FD50" fill-opacity="0.25"/>
</svg>
