<svg width="21" height="21" viewBox="0 0 21 21" fill="none" xmlns="http://www.w3.org/2000/svg">
<path d="M8.29139 15.9715C7.71467 14.0214 6.18942 12.4961 4.2393 11.9194L0.537332 10.8246C-0.179073 10.6127 -0.179072 9.59805 0.537333 9.38618L4.2393 8.29138C6.18942 7.71466 7.71467 6.1894 8.2914 4.23928L9.3862 0.537313C9.59807 -0.179092 10.6127 -0.179091 10.8246 0.537315L11.9194 4.23928C12.4961 6.1894 14.0214 7.71466 15.9715 8.29138L19.6735 9.38618C20.3899 9.59805 20.3899 10.6127 19.6735 10.8246L15.9715 11.9194C14.0214 12.4961 12.4961 14.0214 11.9194 15.9715L10.8246 19.6735C10.6127 20.3899 9.59807 20.3899 9.3862 19.6735L8.29139 15.9715Z" fill="#B9FD50" fill-opacity="0.25"/>
</svg>
