<svg width="106" height="106" viewBox="0 0 106 106" fill="none" xmlns="http://www.w3.org/2000/svg">
<path d="M41.69 70.9751C40.7288 67.7249 38.1867 65.1828 34.9365 64.2216L0.895532 54.1545C-0.298478 53.8013 -0.298469 52.1102 0.89554 51.7571L34.9365 41.69C38.1867 40.7288 40.7288 38.1867 41.69 34.9365L51.7571 0.895504C52.1102 -0.298506 53.8014 -0.298501 54.1545 0.895508L64.2216 34.9365C65.1828 38.1867 67.7249 40.7288 70.9751 41.69L105.016 51.7571C106.21 52.1102 106.21 53.8013 105.016 54.1545L70.9751 64.2216C67.7249 65.1828 65.1828 67.7249 64.2216 70.9751L54.1545 105.016C53.8014 106.21 52.1102 106.21 51.7571 105.016L41.69 70.9751Z" fill="#B9FD50" fill-opacity="0.25"/>
</svg>
