<svg width="174" height="27" viewBox="0 0 174 27" fill="none" xmlns="http://www.w3.org/2000/svg">
<path d="M5.79596 19.3115C4.9151 19.3115 4.14166 19.2041 3.47565 18.9893C2.81679 18.7673 2.28326 18.513 1.87506 18.2266L1.26276 19.0107H0.403381L1.45612 13.79H2.32623C2.36204 14.4131 2.4444 14.9967 2.5733 15.541C2.70937 16.0853 2.9278 16.5758 3.22858 17.0127C3.52936 17.4639 3.91966 17.8148 4.39948 18.0654C4.87929 18.3089 5.47369 18.4307 6.18268 18.4307C7.24974 18.4307 8.10553 18.137 8.75006 17.5498C9.39459 16.9554 9.71686 16.1462 9.71686 15.1221C9.71686 14.5706 9.58079 14.0801 9.30865 13.6504C9.03652 13.2207 8.62832 12.8877 8.08405 12.6514C7.56842 12.4294 7.05638 12.2324 6.54791 12.0605C6.04661 11.8815 5.55247 11.6738 5.06549 11.4375C4.42096 11.1296 3.90175 10.6891 3.50787 10.1162C3.11399 9.53613 2.91705 8.88444 2.91705 8.16113C2.91705 7.47363 3.06744 6.83984 3.36823 6.25977C3.67617 5.67969 4.08079 5.17839 4.58209 4.75586C5.06907 4.34766 5.65631 4.02181 6.34381 3.77832C7.03847 3.53483 7.72597 3.41309 8.40631 3.41309C9.04368 3.41309 9.64524 3.48828 10.211 3.63867C10.7839 3.78906 11.3568 4.07194 11.9297 4.4873L12.5206 3.75684H13.3799L12.295 8.81641H11.4249C11.4034 8.26497 11.3461 7.69564 11.253 7.1084C11.1671 6.52116 11.0167 6.03418 10.8018 5.64746C10.5655 5.22493 10.2361 4.89551 9.81354 4.65918C9.39101 4.41569 8.82884 4.29395 8.12701 4.29395C7.28196 4.29395 6.57298 4.58757 6.00006 5.1748C5.42714 5.75488 5.14069 6.44596 5.14069 7.24805C5.14069 7.77799 5.24453 8.22917 5.45221 8.60156C5.66705 8.9668 5.99648 9.264 6.44049 9.49316C6.91315 9.73665 7.40729 9.94792 7.92291 10.127C8.4457 10.2988 8.91119 10.4814 9.3194 10.6748C10.143 11.0615 10.7839 11.527 11.2422 12.0713C11.7077 12.6156 11.9405 13.2816 11.9405 14.0693C11.9405 14.8285 11.7758 15.5374 11.4464 16.1963C11.1169 16.8551 10.6765 17.4066 10.1251 17.8506C9.54498 18.3232 8.89329 18.6849 8.16998 18.9355C7.45384 19.1862 6.6625 19.3115 5.79596 19.3115ZM15.6685 19.2256C14.9881 19.2256 14.4904 19.0895 14.1753 18.8174C13.8602 18.5381 13.7026 18.1406 13.7026 17.625C13.7026 17.4603 13.7134 17.3063 13.7349 17.1631C13.7564 17.0127 13.785 16.8444 13.8208 16.6582L15.4858 9.48242H13.5737L13.7993 8.50488H15.7544L16.5064 5.35742H18.4399L17.7095 8.50488H20.7065L20.481 9.48242H17.5054L16.1304 15.4014C16.0659 15.6735 16.0122 15.9385 15.9692 16.1963C15.9263 16.4469 15.9048 16.6618 15.9048 16.8408C15.9048 17.2347 16.0015 17.5247 16.1948 17.7109C16.3953 17.89 16.7534 17.9795 17.269 17.9795C17.4552 17.9795 17.7166 17.958 18.0532 17.915C18.3898 17.8649 18.6512 17.804 18.8374 17.7324L18.6548 18.5166C18.1535 18.71 17.6808 18.8747 17.2368 19.0107C16.7928 19.154 16.27 19.2256 15.6685 19.2256ZM29.5693 10.3955C29.5693 11.1546 29.3294 11.8063 28.8496 12.3506C28.3769 12.8949 27.6858 13.3281 26.7763 13.6504C26.1103 13.8939 25.4371 14.0908 24.7568 14.2412C24.0764 14.3916 23.3245 14.5169 22.5009 14.6172C22.5009 15.7487 22.7086 16.6152 23.124 17.2168C23.5465 17.8112 24.1624 18.1084 24.9716 18.1084C25.6878 18.1084 26.318 17.9294 26.8622 17.5713C27.4137 17.2132 27.9544 16.6797 28.4843 15.9707L29.0966 16.4219C28.5237 17.2956 27.8076 17.9938 26.9482 18.5166C26.0888 19.0394 25.1972 19.3008 24.2734 19.3008C23.0058 19.3008 22.0354 18.9463 21.3622 18.2373C20.6962 17.5283 20.3632 16.5221 20.3632 15.2188C20.3632 14.3164 20.5029 13.457 20.7822 12.6406C21.0686 11.8171 21.484 11.0651 22.0283 10.3848C22.5582 9.71875 23.2063 9.18164 23.9726 8.77344C24.746 8.36523 25.5983 8.16113 26.5292 8.16113C27.5605 8.16113 28.3232 8.3724 28.8173 8.79492C29.3186 9.21029 29.5693 9.74382 29.5693 10.3955ZM27.5927 10.127C27.5927 9.84766 27.5533 9.62923 27.4746 9.47168C27.3958 9.30697 27.2955 9.18522 27.1738 9.10645C27.0449 9.02051 26.9088 8.9668 26.7656 8.94531C26.6223 8.92383 26.4755 8.91309 26.3251 8.91309C25.4658 8.91309 24.6708 9.38574 23.9404 10.3311C23.2171 11.2764 22.7587 12.4544 22.5654 13.8652C23.0667 13.7936 23.6324 13.6934 24.2626 13.5645C24.8928 13.4284 25.4156 13.2529 25.831 13.0381C26.4254 12.7301 26.8658 12.3363 27.1523 11.8564C27.4459 11.3695 27.5927 10.793 27.5927 10.127ZM41.5258 12.2646C41.5258 13.2243 41.3575 14.1338 41.0209 14.9932C40.6843 15.8525 40.2367 16.5973 39.6781 17.2275C39.0551 17.9222 38.3783 18.4378 37.6478 18.7744C36.9245 19.111 36.1797 19.2793 35.4135 19.2793C34.7976 19.2793 34.2927 19.2041 33.8988 19.0537C33.5049 18.9033 33.154 18.7171 32.8461 18.4951L32.223 21.3096C32.1801 21.4886 32.1443 21.6569 32.1156 21.8145C32.0941 21.972 32.0834 22.0973 32.0834 22.1904C32.0834 22.3838 32.1514 22.5378 32.2875 22.6523C32.4307 22.7669 32.5918 22.8493 32.7709 22.8994C32.9499 22.9567 33.1504 22.9997 33.3724 23.0283C33.5944 23.057 33.795 23.0785 33.974 23.0928L33.8236 23.7695H27.9047L28.0551 23.0928C28.2842 23.0785 28.4991 23.0605 28.6996 23.0391C28.9001 23.0176 29.0899 22.9818 29.2689 22.9316C29.4909 22.8672 29.6664 22.7454 29.7953 22.5664C29.9314 22.3945 30.028 22.1797 30.0853 21.9219L32.3305 12.0391C32.3877 11.7669 32.4415 11.4948 32.4916 11.2227C32.5417 10.9434 32.5668 10.7035 32.5668 10.5029C32.5668 10.1019 32.5023 9.83333 32.3734 9.69727C32.2517 9.5612 31.9831 9.49316 31.5678 9.49316C31.4102 9.49316 31.2097 9.52539 30.9662 9.58984C30.7227 9.64714 30.5329 9.69368 30.3969 9.72949L30.558 9.04199C31.1023 8.7985 31.5928 8.6123 32.0297 8.4834C32.4665 8.34733 32.8389 8.2793 33.1469 8.2793C33.6482 8.2793 34.0277 8.4082 34.2855 8.66602C34.5433 8.91667 34.7045 9.26758 34.7689 9.71875H34.8549C35.3418 9.26758 35.8611 8.89518 36.4125 8.60156C36.9711 8.30794 37.5261 8.16113 38.0775 8.16113C39.1661 8.16113 40.0111 8.53353 40.6127 9.27832C41.2214 10.016 41.5258 11.0114 41.5258 12.2646ZM38.1742 16.7012C38.5394 16.1139 38.8187 15.4479 39.0121 14.7031C39.2126 13.9512 39.3129 13.1562 39.3129 12.3184C39.3129 11.9388 39.2771 11.5592 39.2055 11.1797C39.141 10.793 39.0336 10.4743 38.8832 10.2236C38.7256 9.94434 38.5108 9.72949 38.2387 9.5791C37.9665 9.42155 37.6084 9.34277 37.1644 9.34277C36.835 9.34277 36.4698 9.44303 36.0687 9.64355C35.6749 9.84408 35.1915 10.2201 34.6185 10.7715L33.2435 16.8623C33.2937 17.2705 33.5121 17.6536 33.8988 18.0117C34.2927 18.3626 34.7653 18.5381 35.3168 18.5381C35.8825 18.5381 36.4125 18.3734 36.9066 18.0439C37.4008 17.7145 37.8233 17.2669 38.1742 16.7012ZM53.5897 17.7539L53.4285 18.4414C52.784 18.6992 52.2827 18.8854 51.9246 19C51.5666 19.1217 51.2049 19.1826 50.8397 19.1826C50.2668 19.1826 49.8371 19.0358 49.5506 18.7422C49.2642 18.4414 49.1209 18.0726 49.1209 17.6357C49.1209 17.4782 49.1352 17.3063 49.1639 17.1201C49.1925 16.9268 49.2391 16.7012 49.3035 16.4434L50.3563 12.4365C50.435 12.1286 50.4959 11.8493 50.5389 11.5986C50.589 11.348 50.6141 11.1475 50.6141 10.9971C50.6141 10.5173 50.4995 10.1377 50.2703 9.8584C50.0412 9.5791 49.701 9.43945 49.2498 9.43945C48.7915 9.43945 48.2938 9.58626 47.7567 9.87988C47.2267 10.1735 46.7218 10.5853 46.242 11.1152L44.4266 19H42.4285L45.619 5.1748C45.6548 5.01009 45.6834 4.87044 45.7049 4.75586C45.7336 4.64128 45.7479 4.51953 45.7479 4.39062C45.7479 4.13281 45.7049 3.93587 45.619 3.7998C45.533 3.65658 45.4113 3.54915 45.2537 3.47754C45.1177 3.41309 44.9315 3.37012 44.6951 3.34863C44.4588 3.32715 44.2225 3.30208 43.9862 3.27344L44.1365 2.61816L48.1219 2.37109L48.2293 2.53223L46.5106 9.96582H46.5535C47.2912 9.37142 47.95 8.92383 48.5301 8.62305C49.1102 8.3151 49.769 8.16113 50.5067 8.16113C51.1942 8.16113 51.7313 8.36165 52.118 8.7627C52.5047 9.15658 52.6981 9.67578 52.6981 10.3203C52.6981 10.4492 52.6766 10.6784 52.6336 11.0078C52.5978 11.3372 52.5369 11.6631 52.451 11.9854L51.5487 15.4336C51.4914 15.6628 51.4305 15.9277 51.366 16.2285C51.3016 16.5221 51.2694 16.7513 51.2694 16.916C51.2694 17.3242 51.3589 17.6035 51.5379 17.7539C51.717 17.8971 52.0106 17.9688 52.4188 17.9688C52.5548 17.9688 52.7482 17.9473 52.9989 17.9043C53.2567 17.8542 53.4536 17.804 53.5897 17.7539ZM61.2493 17.582H61.1741C61.0165 17.7109 60.8268 17.8757 60.6047 18.0762C60.3899 18.2695 60.1357 18.4557 59.8421 18.6348C59.5628 18.8138 59.2584 18.9678 58.929 19.0967C58.5995 19.2327 58.2415 19.3008 57.8547 19.3008C56.8163 19.3008 55.9999 18.9284 55.4055 18.1836C54.8183 17.4388 54.5247 16.4219 54.5247 15.1328C54.5247 14.2448 54.6894 13.3818 55.0188 12.5439C55.3482 11.7061 55.803 10.9541 56.3831 10.2881C56.9345 9.65072 57.5898 9.13867 58.3489 8.75195C59.108 8.35807 59.8886 8.16113 60.6907 8.16113C61.1991 8.16113 61.6825 8.22917 62.1409 8.36523C62.6064 8.5013 62.9716 8.65527 63.2366 8.82715L65.2024 8.32227L65.3313 8.4834L63.6985 15.4121C63.6412 15.6341 63.5803 15.9062 63.5159 16.2285C63.4586 16.5436 63.4299 16.7764 63.4299 16.9268C63.4299 17.335 63.5159 17.6107 63.6878 17.7539C63.8596 17.8971 64.1497 17.9688 64.5579 17.9688C64.6939 17.9688 64.8873 17.9473 65.138 17.9043C65.3886 17.8613 65.582 17.8148 65.718 17.7646L65.5569 18.4521C64.9124 18.71 64.4325 18.8962 64.1174 19.0107C63.8023 19.1253 63.4192 19.1826 62.968 19.1826C62.4524 19.1826 62.0442 19.0322 61.7434 18.7314C61.4426 18.4307 61.2779 18.0475 61.2493 17.582ZM62.7854 10.793C62.7854 10.5566 62.7603 10.3311 62.7102 10.1162C62.6601 9.90137 62.5562 9.70085 62.3987 9.51465C62.2555 9.33561 62.0585 9.19238 61.8079 9.08496C61.5572 8.97754 61.2421 8.92383 60.8626 8.92383C60.3398 8.92383 59.8313 9.0957 59.3372 9.43945C58.843 9.7832 58.399 10.2451 58.0051 10.8252C57.6327 11.3695 57.3284 12.0283 57.0921 12.8018C56.8557 13.5752 56.7376 14.3594 56.7376 15.1543C56.7376 15.5911 56.7626 15.9779 56.8128 16.3145C56.8629 16.651 56.9596 16.959 57.1028 17.2383C57.2389 17.5104 57.4358 17.7217 57.6936 17.8721C57.9514 18.0225 58.2773 18.0977 58.6712 18.0977C59.0722 18.0977 59.4911 17.9867 59.928 17.7646C60.372 17.5355 60.8697 17.138 61.4212 16.5723L62.7854 10.793ZM78.2868 17.7539L78.1257 18.4414C77.4812 18.6992 76.9799 18.8854 76.6218 19C76.2637 19.1217 75.9021 19.1826 75.5368 19.1826C74.9639 19.1826 74.5342 19.0358 74.2478 18.7422C73.9613 18.4414 73.8181 18.0726 73.8181 17.6357C73.8181 17.4782 73.8324 17.3063 73.861 17.1201C73.8897 16.9268 73.9362 16.7012 74.0007 16.4434L75.0534 12.4365C75.1322 12.1286 75.1931 11.8493 75.236 11.5986C75.2862 11.348 75.3112 11.1475 75.3112 10.9971C75.3112 10.5173 75.1967 10.1377 74.9675 9.8584C74.7383 9.5791 74.3981 9.43945 73.947 9.43945C73.5101 9.43945 73.0196 9.58268 72.4753 9.86914C71.931 10.1556 71.419 10.571 70.9392 11.1152L69.1237 19H67.1257L68.7263 12.0391C68.7621 11.8672 68.8122 11.6201 68.8767 11.2979C68.9483 10.9684 68.9841 10.7035 68.9841 10.5029C68.9841 10.1019 68.9161 9.83333 68.78 9.69727C68.6439 9.5612 68.3718 9.49316 67.9636 9.49316C67.806 9.49316 67.6055 9.52181 67.362 9.5791C67.1185 9.62923 66.9287 9.6722 66.7927 9.70801L66.9538 9.02051C67.5124 8.76986 68.0065 8.58366 68.4362 8.46191C68.8659 8.34017 69.2347 8.2793 69.5427 8.2793C70.1084 8.2793 70.5131 8.43327 70.7565 8.74121C71 9.04915 71.1289 9.47526 71.1433 10.0195H71.2077C71.9955 9.38932 72.6758 8.92383 73.2487 8.62305C73.8217 8.3151 74.4733 8.16113 75.2038 8.16113C75.8913 8.16113 76.4284 8.36165 76.8151 8.7627C77.2019 9.15658 77.3952 9.67578 77.3952 10.3203C77.3952 10.4492 77.3737 10.6784 77.3308 11.0078C77.295 11.3372 77.2341 11.6631 77.1481 11.9854L76.2458 15.4336C76.1814 15.6628 76.1169 15.9277 76.0524 16.2285C75.9952 16.5221 75.9665 16.7513 75.9665 16.916C75.9665 17.3242 76.056 17.6035 76.2351 17.7539C76.4141 17.8971 76.7077 17.9688 77.1159 17.9688C77.252 17.9688 77.4453 17.9473 77.696 17.9043C77.9538 17.8542 78.1508 17.804 78.2868 17.7539ZM84.3996 17.8291L84.2384 18.5166C83.5796 18.7816 83.0532 18.9642 82.6593 19.0645C82.2654 19.1719 81.9288 19.2256 81.6496 19.2256C81.0766 19.2256 80.6469 19.0788 80.3605 18.7852C80.074 18.4844 79.9308 18.1156 79.9308 17.6787C79.9308 17.514 79.9451 17.3421 79.9738 17.1631C80.0024 16.984 80.049 16.7585 80.1134 16.4863L81.2521 11.9209C81.3094 11.6702 81.3631 11.4017 81.4132 11.1152C81.4705 10.8288 81.4992 10.5853 81.4992 10.3848C81.4992 9.98372 81.4311 9.71875 81.2951 9.58984C81.1662 9.45378 80.8976 9.38574 80.4894 9.38574C80.3318 9.38574 80.1206 9.41081 79.8556 9.46094C79.5978 9.51107 79.4009 9.55404 79.2648 9.58984L79.4259 8.90234C79.9845 8.65169 80.4858 8.46549 80.9298 8.34375C81.3738 8.22201 81.7247 8.16113 81.9826 8.16113C82.5698 8.16113 82.9959 8.30078 83.2609 8.58008C83.5259 8.85938 83.6583 9.23535 83.6583 9.70801C83.6583 9.83691 83.644 10.0124 83.6154 10.2344C83.5867 10.4564 83.5438 10.6784 83.4865 10.9004L82.3371 15.4658C82.2654 15.7451 82.201 16.0208 82.1437 16.293C82.0936 16.5579 82.0685 16.7764 82.0685 16.9482C82.0685 17.3564 82.158 17.6357 82.3371 17.7861C82.5232 17.9365 82.8204 18.0117 83.2287 18.0117C83.3647 18.0117 83.5581 17.9938 83.8087 17.958C84.0665 17.9222 84.2635 17.8792 84.3996 17.8291ZM85.1622 4.10059C85.1622 4.50879 85.0298 4.86686 84.7648 5.1748C84.4998 5.47559 84.1704 5.62598 83.7765 5.62598C83.4113 5.62598 83.0962 5.48275 82.8312 5.19629C82.5662 4.90267 82.4337 4.56966 82.4337 4.19727C82.4337 3.80339 82.5662 3.45964 82.8312 3.16602C83.0962 2.8724 83.4113 2.72559 83.7765 2.72559C84.1847 2.72559 84.5177 2.86523 84.7755 3.14453C85.0333 3.41667 85.1622 3.73535 85.1622 4.10059ZM94.5406 10.3955C94.5406 11.1546 94.3007 11.8063 93.8209 12.3506C93.3482 12.8949 92.6571 13.3281 91.7476 13.6504C91.0816 13.8939 90.4084 14.0908 89.7281 14.2412C89.0478 14.3916 88.2958 14.5169 87.4723 14.6172C87.4723 15.7487 87.6799 16.6152 88.0953 17.2168C88.5178 17.8112 89.1337 18.1084 89.943 18.1084C90.6591 18.1084 91.2893 17.9294 91.8336 17.5713C92.385 17.2132 92.9257 16.6797 93.4557 15.9707L94.068 16.4219C93.495 17.2956 92.7789 17.9938 91.9195 18.5166C91.0601 19.0394 90.1685 19.3008 89.2447 19.3008C87.9771 19.3008 87.0068 18.9463 86.3336 18.2373C85.6676 17.5283 85.3346 16.5221 85.3346 15.2188C85.3346 14.3164 85.4742 13.457 85.7535 12.6406C86.04 11.8171 86.4553 11.0651 86.9996 10.3848C87.5295 9.71875 88.1777 9.18164 88.9439 8.77344C89.7174 8.36523 90.5696 8.16113 91.5006 8.16113C92.5318 8.16113 93.2945 8.3724 93.7887 8.79492C94.29 9.21029 94.5406 9.74382 94.5406 10.3955ZM92.564 10.127C92.564 9.84766 92.5247 9.62923 92.4459 9.47168C92.3671 9.30697 92.2668 9.18522 92.1451 9.10645C92.0162 9.02051 91.8801 8.9668 91.7369 8.94531C91.5937 8.92383 91.4469 8.91309 91.2965 8.91309C90.4371 8.91309 89.6422 9.38574 88.9117 10.3311C88.1884 11.2764 87.7301 12.4544 87.5367 13.8652C88.038 13.7936 88.6038 13.6934 89.234 13.5645C89.8642 13.4284 90.387 13.2529 90.8023 13.0381C91.3967 12.7301 91.8372 12.3363 92.1236 11.8564C92.4172 11.3695 92.564 10.793 92.564 10.127ZM118.421 3.75684L118.26 4.46582C118.06 4.47298 117.809 4.50521 117.508 4.5625C117.207 4.61979 116.978 4.6735 116.821 4.72363C116.541 4.81673 116.341 4.96354 116.219 5.16406C116.097 5.36458 116.008 5.57943 115.951 5.80859L113.394 16.9053C113.38 16.9626 113.369 17.027 113.362 17.0986C113.355 17.1702 113.351 17.2311 113.351 17.2812C113.351 17.4316 113.383 17.5641 113.448 17.6787C113.512 17.7933 113.616 17.8971 113.759 17.9902C113.867 18.0547 114.06 18.1191 114.339 18.1836C114.626 18.248 114.869 18.2839 115.07 18.291L114.909 19H108.582L108.743 18.291C108.922 18.2767 109.176 18.2552 109.505 18.2266C109.835 18.1979 110.068 18.1549 110.204 18.0977C110.454 18.0046 110.648 17.8685 110.784 17.6895C110.92 17.5104 111.016 17.2884 111.074 17.0234L112.341 11.5234H105.176L103.941 16.9053C103.927 16.9626 103.916 17.0234 103.909 17.0879C103.901 17.1523 103.898 17.2132 103.898 17.2705C103.898 17.4137 103.93 17.5498 103.995 17.6787C104.066 17.8076 104.17 17.9115 104.306 17.9902C104.414 18.0547 104.607 18.1191 104.886 18.1836C105.173 18.248 105.416 18.2839 105.617 18.291L105.456 19H99.1284L99.2895 18.291C99.4685 18.2767 99.7228 18.2552 100.052 18.2266C100.382 18.1979 100.614 18.1549 100.75 18.0977C101.001 18.0046 101.194 17.8685 101.331 17.6895C101.467 17.5104 101.563 17.2884 101.621 17.0234L104.188 5.91602C104.202 5.85872 104.213 5.80143 104.22 5.74414C104.227 5.67969 104.231 5.61523 104.231 5.55078C104.231 5.39323 104.199 5.25716 104.134 5.14258C104.077 5.02799 103.97 4.92773 103.812 4.8418C103.64 4.7487 103.425 4.66634 103.167 4.59473C102.91 4.52311 102.68 4.48014 102.48 4.46582L102.641 3.75684H108.968L108.807 4.46582C108.607 4.47298 108.356 4.50521 108.055 4.5625C107.754 4.61979 107.525 4.6735 107.368 4.72363C107.088 4.81673 106.888 4.96354 106.766 5.16406C106.644 5.36458 106.555 5.57943 106.498 5.80859L105.402 10.6104H112.567L113.641 5.91602C113.655 5.85872 113.666 5.80143 113.673 5.74414C113.68 5.67969 113.684 5.61882 113.684 5.56152C113.684 5.40397 113.652 5.2679 113.587 5.15332C113.53 5.03158 113.423 4.92773 113.265 4.8418C113.093 4.7487 112.878 4.66634 112.621 4.59473C112.363 4.52311 112.134 4.48014 111.933 4.46582L112.094 3.75684H118.421ZM127.993 12.3828C127.993 13.2279 127.85 14.0729 127.563 14.918C127.277 15.763 126.862 16.5042 126.317 17.1416C125.766 17.8005 125.1 18.3304 124.319 18.7314C123.546 19.1253 122.647 19.3223 121.623 19.3223C120.434 19.3223 119.467 18.9391 118.723 18.1729C117.985 17.4066 117.616 16.3753 117.616 15.0791C117.616 14.1266 117.774 13.2386 118.089 12.415C118.404 11.5915 118.826 10.8682 119.356 10.2451C119.893 9.62207 120.556 9.12077 121.344 8.74121C122.139 8.35449 122.998 8.16113 123.922 8.16113C125.197 8.16113 126.192 8.55143 126.908 9.33203C127.631 10.1055 127.993 11.1224 127.993 12.3828ZM125.802 11.9746C125.802 10.9577 125.619 10.195 125.254 9.68652C124.896 9.17806 124.377 8.92383 123.696 8.92383C123.102 8.92383 122.54 9.10645 122.01 9.47168C121.487 9.83691 121.036 10.4313 120.656 11.2549C120.363 11.8779 120.148 12.5726 120.012 13.3389C119.876 14.098 119.808 14.7998 119.808 15.4443C119.808 16.4684 119.983 17.2454 120.334 17.7754C120.692 18.2982 121.229 18.5596 121.945 18.5596C122.583 18.5596 123.148 18.359 123.642 17.958C124.137 17.557 124.538 17.0485 124.846 16.4326C125.154 15.8311 125.39 15.1436 125.555 14.3701C125.719 13.5895 125.802 12.791 125.802 11.9746ZM134.718 2.53223L131.721 15.4658C131.657 15.738 131.596 16.0101 131.538 16.2822C131.481 16.5544 131.452 16.7764 131.452 16.9482C131.452 17.3564 131.542 17.6357 131.721 17.7861C131.907 17.9365 132.204 18.0117 132.613 18.0117C132.756 18.0117 132.967 17.9938 133.246 17.958C133.533 17.9222 133.748 17.8792 133.891 17.8291L133.73 18.5166C133.085 18.7744 132.588 18.957 132.237 19.0645C131.893 19.1719 131.503 19.2256 131.066 19.2256C130.493 19.2256 130.056 19.0788 129.755 18.7852C129.462 18.4844 129.315 18.1156 129.315 17.6787C129.315 17.514 129.329 17.3421 129.358 17.1631C129.394 16.984 129.44 16.7585 129.497 16.4863L132.108 5.1748C132.158 4.9528 132.19 4.79883 132.204 4.71289C132.226 4.62695 132.237 4.51953 132.237 4.39062C132.237 4.13281 132.194 3.93587 132.108 3.7998C132.022 3.65658 131.9 3.54915 131.743 3.47754C131.592 3.41309 131.402 3.37012 131.173 3.34863C130.944 3.32715 130.711 3.30208 130.475 3.27344L130.625 2.61816L134.611 2.37109L134.718 2.53223ZM152.83 17.7861L152.669 18.4736C152.01 18.7386 151.484 18.9212 151.09 19.0215C150.696 19.1289 150.359 19.1826 150.08 19.1826C149.507 19.1826 149.077 19.0358 148.791 18.7422C148.504 18.4414 148.361 18.0726 148.361 17.6357C148.361 17.4782 148.375 17.3063 148.404 17.1201C148.433 16.9268 148.479 16.7012 148.544 16.4434L149.596 12.4365C149.675 12.1286 149.736 11.8493 149.779 11.5986C149.829 11.348 149.854 11.1475 149.854 10.9971C149.854 10.5173 149.75 10.1377 149.543 9.8584C149.335 9.5791 149.006 9.43945 148.554 9.43945C148.075 9.43945 147.602 9.55404 147.137 9.7832C146.678 10.0052 146.159 10.4242 145.579 11.04L143.71 19H141.712L143.398 11.8242C143.434 11.6667 143.466 11.502 143.495 11.3301C143.531 11.151 143.549 11.0186 143.549 10.9326C143.549 10.4671 143.43 10.1019 143.194 9.83691C142.965 9.57194 142.625 9.43945 142.174 9.43945C141.765 9.43945 141.314 9.54329 140.82 9.75098C140.326 9.9515 139.753 10.4062 139.101 11.1152L137.286 19H135.288L136.888 12.0391C136.946 11.7884 136.999 11.5199 137.05 11.2334C137.107 10.9469 137.136 10.7035 137.136 10.5029C137.136 10.0876 137.067 9.81543 136.931 9.68652C136.795 9.55046 136.53 9.48242 136.137 9.48242C135.979 9.48242 135.775 9.51107 135.524 9.56836C135.281 9.62565 135.091 9.6722 134.955 9.70801L135.116 9.02051C135.675 8.76986 136.169 8.58366 136.598 8.46191C137.028 8.34017 137.397 8.2793 137.705 8.2793C138.278 8.2793 138.682 8.43685 138.919 8.75195C139.162 9.0599 139.291 9.48242 139.305 10.0195H139.37C140.215 9.35352 140.91 8.87728 141.454 8.59082C141.998 8.30436 142.646 8.16113 143.398 8.16113C144.036 8.16113 144.551 8.34733 144.945 8.71973C145.346 9.08496 145.572 9.54688 145.622 10.1055H145.665C146.431 9.4681 147.111 8.9847 147.706 8.65527C148.307 8.32585 149.006 8.16113 149.801 8.16113C150.488 8.16113 151.014 8.36165 151.38 8.7627C151.752 9.15658 151.938 9.67578 151.938 10.3203C151.938 10.4492 151.917 10.6784 151.874 11.0078C151.838 11.3372 151.777 11.6631 151.691 11.9854L150.789 15.4336C150.724 15.6628 150.664 15.9277 150.606 16.2285C150.549 16.5221 150.52 16.7513 150.52 16.916C150.52 17.3242 150.606 17.6035 150.778 17.7539C150.95 17.8971 151.24 17.9688 151.648 17.9688C151.784 17.9688 151.981 17.9508 152.239 17.915C152.497 17.8792 152.694 17.8363 152.83 17.7861ZM162.971 10.3955C162.971 11.1546 162.731 11.8063 162.251 12.3506C161.779 12.8949 161.087 13.3281 160.178 13.6504C159.512 13.8939 158.839 14.0908 158.158 14.2412C157.478 14.3916 156.726 14.5169 155.903 14.6172C155.903 15.7487 156.11 16.6152 156.526 17.2168C156.948 17.8112 157.564 18.1084 158.373 18.1084C159.089 18.1084 159.72 17.9294 160.264 17.5713C160.815 17.2132 161.356 16.6797 161.886 15.9707L162.498 16.4219C161.925 17.2956 161.209 17.9938 160.35 18.5166C159.49 19.0394 158.599 19.3008 157.675 19.3008C156.407 19.3008 155.437 18.9463 154.764 18.2373C154.098 17.5283 153.765 16.5221 153.765 15.2188C153.765 14.3164 153.905 13.457 154.184 12.6406C154.47 11.8171 154.886 11.0651 155.43 10.3848C155.96 9.71875 156.608 9.18164 157.374 8.77344C158.148 8.36523 159 8.16113 159.931 8.16113C160.962 8.16113 161.725 8.3724 162.219 8.79492C162.72 9.21029 162.971 9.74382 162.971 10.3955ZM160.994 10.127C160.994 9.84766 160.955 9.62923 160.876 9.47168C160.797 9.30697 160.697 9.18522 160.575 9.10645C160.447 9.02051 160.31 8.9668 160.167 8.94531C160.024 8.92383 159.877 8.91309 159.727 8.91309C158.867 8.91309 158.072 9.38574 157.342 10.3311C156.619 11.2764 156.16 12.4544 155.967 13.8652C156.468 13.7936 157.034 13.6934 157.664 13.5645C158.294 13.4284 158.817 13.2529 159.233 13.0381C159.827 12.7301 160.267 12.3363 160.554 11.8564C160.848 11.3695 160.994 10.793 160.994 10.127ZM166.849 19.3115C165.789 19.3115 164.905 19.1253 164.196 18.7529C163.494 18.3734 163.143 17.8792 163.143 17.2705C163.143 16.984 163.247 16.7155 163.455 16.4648C163.662 16.2142 163.917 16.0889 164.217 16.0889C164.504 16.0889 164.733 16.1569 164.905 16.293C165.084 16.4219 165.224 16.5758 165.324 16.7549C165.431 16.9411 165.524 17.1631 165.603 17.4209C165.689 17.6787 165.761 17.89 165.818 18.0547C165.925 18.1764 166.072 18.291 166.258 18.3984C166.452 18.4987 166.728 18.5488 167.086 18.5488C167.859 18.5488 168.443 18.3555 168.837 17.9688C169.238 17.582 169.438 17.0592 169.438 16.4004C169.438 15.9134 169.252 15.5267 168.88 15.2402C168.507 14.9466 167.952 14.6781 167.215 14.4346C166.95 14.3486 166.638 14.2197 166.28 14.0479C165.922 13.8688 165.635 13.679 165.421 13.4785C165.163 13.2493 164.955 12.9772 164.798 12.6621C164.64 12.347 164.561 11.9746 164.561 11.5449C164.561 10.6283 164.969 9.83691 165.786 9.1709C166.609 8.49772 167.619 8.16113 168.815 8.16113C169.094 8.16113 169.395 8.17546 169.717 8.2041C170.04 8.23275 170.394 8.31152 170.781 8.44043C171.118 8.55501 171.404 8.72689 171.64 8.95605C171.877 9.17806 171.995 9.4681 171.995 9.82617C171.995 10.1198 171.895 10.3883 171.694 10.6318C171.501 10.8682 171.243 10.9863 170.921 10.9863C170.656 10.9863 170.437 10.929 170.265 10.8145C170.093 10.6999 169.95 10.5459 169.836 10.3525C169.721 10.1592 169.628 9.9515 169.556 9.72949C169.485 9.50749 169.406 9.28906 169.32 9.07422C169.184 9.01693 169.062 8.97754 168.955 8.95605C168.847 8.93457 168.704 8.92383 168.525 8.92383C167.823 8.92383 167.29 9.11361 166.924 9.49316C166.566 9.86556 166.387 10.3096 166.387 10.8252C166.387 11.3265 166.548 11.7061 166.871 11.9639C167.2 12.2145 167.741 12.4759 168.493 12.748C169.467 13.099 170.172 13.5 170.609 13.9512C171.053 14.4023 171.275 14.9609 171.275 15.627C171.275 16.7155 170.856 17.6035 170.018 18.291C169.18 18.9714 168.124 19.3115 166.849 19.3115Z" fill="#E9DEFF"/>
<path d="M0.500061 25.75C26.5652 22.1529 101.113 19.6588 173.5 24.2228" stroke="#E9DEFF" stroke-linecap="round"/>
</svg>
